<svg width="317" height="374" viewBox="0 0 317 374" fill="none" xmlns="http://www.w3.org/2000/svg">
<rect x="7.9292" y="269.017" width="306.902" height="102.001" rx="8" fill="black" stroke="black" stroke-width="4"/>
<path d="M26.0728 2.74683H296.18C300.598 2.74683 304.18 6.32854 304.18 10.7468V220.02C304.18 223.253 302.234 226.169 299.248 227.409L277.331 236.51C276.344 236.92 275.374 237.122 274.337 237.122H85.0493H47.5013C46.4347 237.122 45.3893 236.908 44.4017 236.491L43.6234 238.333L44.4017 236.491L22.9598 227.434C19.9978 226.183 18.0728 223.28 18.0728 220.064V10.7468C18.0728 6.32855 21.6545 2.74683 26.0728 2.74683Z" fill="black" stroke="black" stroke-width="4"/>
<rect x="24.1589" y="8.32582" width="273.935" height="216.116" rx="8" fill="#FEFCE8" stroke="black" stroke-width="4"/>
<rect x="46.4751" y="26.5843" width="229.303" height="172.499" rx="8" fill="#A7F3D0" stroke="black" stroke-width="4"/>
<path d="M121.82 245.969L114.719 238.868H198L190.5 245.969L250.5 255V264.5H62.2261V253.83L121.82 245.969Z" fill="#FEFCE8" stroke="black" stroke-width="4" stroke-linejoin="round"/>
<rect x="2.85742" y="263.945" width="306.902" height="102.001" rx="8" fill="#FEFCE8" stroke="black" stroke-width="4"/>
<rect x="176.82" y="277.131" width="117.723" height="40.1247" stroke="black" stroke-width="4"/>
<rect x="10.9722" y="349.658" width="8.17233" height="8.17233" stroke="black" stroke-width="4"/>
<rect x="216.916" y="340.558" width="3.04308" height="17.2441" fill="black" stroke="black" stroke-width="3.04308"/>
<rect x="248.868" y="340.558" width="3.04308" height="17.2441" fill="black" stroke="black" stroke-width="3.04308"/>
<rect x="281.328" y="340.558" width="3.04308" height="17.2441" fill="black" stroke="black" stroke-width="3.04308"/>
<rect x="223.481" y="341.036" width="6.65079" height="16.2872" stroke="black" stroke-width="4"/>
<rect x="255.433" y="341.036" width="6.65079" height="16.2872" stroke="black" stroke-width="4"/>
<rect x="287.893" y="341.036" width="6.65079" height="16.2872" stroke="black" stroke-width="4"/>
<rect x="280.567" y="308.859" width="8.62207" height="3.55026" stroke="black" stroke-width="3.55026"/>
<rect x="216.156" y="295.672" width="39.0529" height="3.55026" fill="black" stroke="black" stroke-width="3.55026"/>
<line x1="0.857422" y1="328.414" x2="311.759" y2="328.414" stroke="black" stroke-width="4"/>
<line x1="23.1448" y1="275.131" x2="23.1448" y2="319.256" stroke="black" stroke-width="4"/>
<line x1="39.3745" y1="275.131" x2="39.3745" y2="319.256" stroke="black" stroke-width="4"/>
<line x1="55.604" y1="275.131" x2="55.604" y2="319.256" stroke="black" stroke-width="4"/>
<line x1="71.834" y1="275.131" x2="71.834" y2="319.256" stroke="black" stroke-width="4"/>
<line x1="88.0637" y1="275.131" x2="88.0637" y2="319.256" stroke="black" stroke-width="4"/>
<line x1="104.294" y1="275.131" x2="104.294" y2="319.256" stroke="black" stroke-width="4"/>
<line x1="120.523" y1="330.414" x2="120.523" y2="365.917" stroke="black" stroke-width="4"/>
<line x1="202.179" y1="330.414" x2="202.179" y2="365.917" stroke="black" stroke-width="4"/>
<line x1="120.523" y1="275.131" x2="120.523" y2="319.256" stroke="black" stroke-width="4"/>
<line x1="237.682" y1="275.131" x2="237.682" y2="319.256" stroke="black" stroke-width="4"/>
<line x1="175.327" y1="285.304" x2="296.544" y2="285.304" stroke="black" stroke-width="4"/>
<line x1="190.036" y1="296.462" x2="280.821" y2="296.462" stroke="black" stroke-width="4"/>
<rect x="65.4336" y="45.6187" width="47.4334" height="14.23" rx="4" fill="#D1FAE5"/>
<rect x="65.4336" y="65.9473" width="47.4334" height="14.23" rx="4" fill="#D1FAE5"/>
<rect x="65.4336" y="86.2759" width="47.4334" height="14.23" rx="4" fill="#D1FAE5"/>
<rect x="65.4336" y="106.605" width="47.4334" height="14.23" rx="4" fill="#D1FAE5"/>
<rect x="65.4336" y="126.933" width="47.4334" height="14.23" rx="4" fill="#D1FAE5"/>
<rect x="65.4336" y="147.262" width="47.4334" height="14.23" rx="4" fill="#D1FAE5"/>
<rect x="65.4336" y="167.59" width="47.4334" height="14.23" rx="4" fill="#D1FAE5"/>
<rect x="116.255" y="45.6187" width="47.4334" height="14.23" rx="4" fill="#D1FAE5"/>
<rect x="116.255" y="65.9473" width="47.4334" height="14.23" rx="4" fill="#D1FAE5"/>
<rect x="116.255" y="86.2759" width="47.4334" height="14.23" rx="4" fill="#D1FAE5"/>
<rect x="116.255" y="106.605" width="47.4334" height="14.23" rx="4" fill="#D1FAE5"/>
<rect x="116.255" y="126.933" width="47.4334" height="14.23" rx="4" fill="#D1FAE5"/>
<rect x="116.255" y="147.262" width="47.4334" height="14.23" rx="4" fill="#D1FAE5"/>
<rect x="116.255" y="167.59" width="47.4334" height="14.23" rx="4" fill="#D1FAE5"/>
<rect x="167.076" y="45.6187" width="90.1235" height="14.23" rx="4" fill="#D1FAE5"/>
<rect x="167.076" y="65.9473" width="90.1235" height="14.23" rx="4" fill="#D1FAE5"/>
<rect x="167.076" y="86.2759" width="90.1235" height="14.23" rx="4" fill="#D1FAE5"/>
<rect x="167.076" y="106.605" width="90.1235" height="14.23" rx="4" fill="#D1FAE5"/>
<rect x="167.076" y="126.933" width="90.1235" height="14.23" rx="4" fill="#D1FAE5"/>
<rect x="167.076" y="147.262" width="90.1235" height="14.23" rx="4" fill="#D1FAE5"/>
<rect x="167.076" y="167.59" width="90.1235" height="14.23" rx="4" fill="#D1FAE5"/>
</svg>
