<svg width="174" height="25" viewBox="0 0 174 25" fill="none" xmlns="http://www.w3.org/2000/svg">
<g clip-path="url(#clip0_9_327)">
<path d="M26.9974 17.3C26.9974 19.54 27.0299 20.596 27.6161 21.396C28.4626 22.548 28.6906 22.964 28.658 23.54C28.5929 24.212 28.137 24.5 27.1602 24.5H20.6479C19.6711 24.5 19.2152 24.212 19.1501 23.54C19.1175 22.964 19.3455 22.548 20.1921 21.396C20.7782 20.596 20.8107 19.54 20.8107 17.3V9.26799C18.857 13.876 16.4149 19.668 15.8939 20.916C14.9497 23.156 14.5915 24.5 12.7355 24.5C11.2377 24.5 10.5213 23.092 9.90265 21.492C9.54447 20.564 7.06981 14.292 4.92075 9.10799V17.3C4.92075 19.54 4.98588 20.596 5.57198 21.396C6.41858 22.548 6.67907 22.964 6.64651 23.54C6.58139 24.212 6.12553 24.5 5.11612 24.5H1.69717C0.687771 24.5 0.231912 24.212 0.166789 23.54C0.134227 22.964 0.362157 22.548 1.20875 21.396C1.79486 20.596 1.85998 19.54 1.85998 17.3V9.29999C1.85998 7.09199 1.79486 6.03599 1.20875 5.20399C0.362157 4.05199 0.134227 3.66799 0.166789 3.09199C0.231912 2.41999 0.687771 2.09999 1.69717 2.09999H6.77675C8.14433 2.09999 9.05605 2.45199 9.64216 3.95599C10.3259 5.77999 14.3636 16.596 14.3636 16.596C14.3636 16.596 18.8896 6.06799 19.7688 4.08399C20.3874 2.64399 20.8107 2.09999 22.569 2.09999H27.1602C28.137 2.09999 28.5929 2.41999 28.658 3.09199C28.6906 3.66799 28.4626 4.05199 27.6161 5.20399C27.0299 6.03599 26.9974 7.09199 26.9974 9.29999V17.3ZM46.3562 20.692C47.1702 21.524 47.9512 21.396 47.886 22.356C47.8209 23.732 46.03 24.788 44.2066 24.788C41.7971 24.788 40.5597 24.116 40.0387 22.74C39.1596 24.084 37.8246 24.788 35.7406 24.788C32.224 24.788 30.1401 22.996 30.1401 20.372C30.1401 16.116 34.1126 14.868 39.8108 14.868V14.42C39.8108 12.628 39.7131 11.22 38.4107 11.028C37.4664 10.9 36.5547 11.156 36.1639 12.372C35.5453 14.324 34.2754 14.772 32.8427 14.292C31.9635 13.972 31.1495 12.948 31.703 11.572C32.6473 9.13999 35.9686 8.56399 38.7363 8.56399C43.2298 8.56399 45.737 10.548 45.737 15.22V15.86C45.737 18.068 45.6398 19.956 46.3562 20.692ZM40.0387 19.124V17.844C40.0387 16.82 39.6154 16.788 38.5084 16.98C37.271 17.172 36.2616 18.1 36.1639 19.508C36.0988 20.852 36.7175 21.812 38.1502 21.812C39.4526 21.812 40.0387 20.788 40.0387 19.124ZM57.0165 21.396C57.8631 22.548 58.091 22.964 58.0584 23.54C57.9933 24.212 57.5374 24.5 56.5606 24.5H50.2762C49.2668 24.5 48.811 24.212 48.7784 23.54C48.7133 22.964 48.9738 22.548 49.8204 21.396C50.4065 20.596 50.4391 19.54 50.4391 17.3C50.4391 15.092 50.4065 14.036 49.8204 13.236C48.9738 12.084 48.7133 11.668 48.7784 11.092C48.811 10.42 49.2994 10.004 50.2762 9.68399C51.2856 9.36399 53.2068 8.78799 53.5649 8.69199C55.4209 8.17999 56.3978 9.04399 56.3978 10.836V17.3C56.3978 19.54 56.4304 20.596 57.0165 21.396ZM52.9463 7.18799C50.9275 7.18799 49.2668 5.71599 49.2668 3.85999C49.2668 2.03599 50.9275 0.563994 52.9463 0.563994C54.9977 0.563994 56.6583 2.03599 56.6583 3.85999C56.6583 5.71599 54.9977 7.18799 52.9463 7.18799ZM77.8034 21.396C78.6499 22.548 78.9104 22.964 78.8779 23.54C78.8128 24.212 78.3569 24.5 77.3475 24.5H71.0957C70.0863 24.5 69.6304 24.212 69.5653 23.54C69.5328 22.964 69.7933 22.548 70.6398 21.396C71.226 20.596 71.2585 19.54 71.2585 17.3V16.98C71.2585 14.772 71.2911 11.956 68.9467 11.956C67.4814 11.956 66.7325 13.076 66.7325 15.028V17.3C66.7325 19.54 66.765 20.596 67.3511 21.396C68.1977 22.548 68.4582 22.964 68.3931 23.54C68.3605 24.212 67.9047 24.5 66.8953 24.5H60.6435C59.6341 24.5 59.1782 24.212 59.1131 23.54C59.0805 22.964 59.3085 22.548 60.1551 21.396C60.7412 20.596 60.8063 19.54 60.8063 17.396C60.8063 15.22 60.7412 14.036 60.1551 13.236C59.3085 12.084 59.0805 11.668 59.1131 11.092C59.1782 10.42 59.6341 10.004 60.6435 9.68399C61.6203 9.36399 63.5415 8.78799 63.8996 8.69199C65.6905 8.21199 66.6348 8.97999 66.7325 10.612C67.8396 9.52399 69.4025 8.56399 71.4539 8.56399C75.7194 8.56399 77.1847 11.38 77.1847 13.844V17.3C77.1847 19.54 77.2172 20.596 77.8034 21.396ZM88.1223 0.563994C92.5181 0.403994 94.2764 3.37999 93.3321 5.29999C92.5506 6.93199 89.4898 6.73999 89.1968 4.49999C88.9689 2.93199 88.5781 2.22799 87.6339 2.25999C86.8524 2.29199 86.4616 2.93199 86.4291 3.79599C86.4291 5.49199 87.6338 6.57999 88.0571 8.81999H90.9225C91.2592 8.82052 91.5819 8.95218 91.8199 9.18611C92.0579 9.42004 92.1919 9.73717 92.1924 10.068V10.356C92.1919 10.6868 92.0579 11.0039 91.8199 11.2379C91.5819 11.4718 91.2592 11.6035 90.9225 11.604H88.2199V17.3C88.2199 19.54 88.1548 20.66 88.8386 21.396C89.7503 22.356 90.2062 22.932 90.1085 23.54C90.0108 24.18 89.6201 24.5 88.6107 24.5H82.131C81.1216 24.5 80.6657 24.212 80.6006 23.54C80.568 22.964 80.796 22.548 81.6425 21.396C82.2287 20.596 82.2938 19.54 82.2938 17.3V11.604H80.5029C80.1663 11.6035 79.8436 11.4718 79.6055 11.2379C79.3675 11.0039 79.2335 10.6868 79.233 10.356V10.068C79.2335 9.73717 79.3675 9.42004 79.6055 9.18611C79.8436 8.95218 80.1663 8.82052 80.5029 8.81999H82.131C81.7077 2.73999 84.0846 0.691994 88.1223 0.563994ZM104.122 8.56399C107.606 8.56399 108.908 11.38 107.606 13.684C106.727 15.188 104.35 15.572 103.112 13.94C102.233 12.788 102.428 11.732 101.321 11.732C100.507 11.732 100.312 12.34 100.279 13.364V17.3C100.279 19.54 100.312 20.756 100.898 21.396C101.81 22.324 102.266 22.932 102.168 23.54C102.07 24.18 101.68 24.5 100.67 24.5H94.1904C93.181 24.5 92.7251 24.212 92.66 23.54C92.6274 22.964 92.8554 22.548 93.702 21.396C94.2881 20.596 94.3206 19.54 94.3206 17.396C94.3206 15.22 94.2881 14.036 93.702 13.236C92.8554 12.084 92.6274 11.668 92.66 11.092C92.7251 10.42 93.181 10.004 94.1904 9.68399C95.1672 9.36399 97.0884 8.78799 97.4465 8.69199C99.0746 8.24399 100.019 8.85199 100.214 10.228C101.093 9.29999 102.331 8.56399 104.122 8.56399ZM123.848 20.692C124.662 21.524 125.444 21.396 125.379 22.356C125.313 23.732 123.523 24.788 121.699 24.788C119.29 24.788 118.052 24.116 117.531 22.74C116.652 24.084 115.317 24.788 113.233 24.788C109.717 24.788 107.633 22.996 107.633 20.372C107.633 16.116 111.605 14.868 117.303 14.868V14.42C117.303 12.628 117.206 11.22 115.903 11.028C114.959 10.9 114.047 11.156 113.657 12.372C113.038 14.324 111.768 14.772 110.335 14.292C109.456 13.972 108.642 12.948 109.196 11.572C110.14 9.13999 113.461 8.56399 116.229 8.56399C120.722 8.56399 123.23 10.548 123.23 15.22V15.86C123.23 18.068 123.132 19.956 123.848 20.692ZM117.531 19.124V17.844C117.531 16.82 117.108 16.788 116.001 16.98C114.764 17.172 113.754 18.1 113.657 19.508C113.591 20.852 114.21 21.812 115.643 21.812C116.945 21.812 117.531 20.788 117.531 19.124ZM154.958 21.396C155.804 22.548 156.065 22.964 156 23.54C155.967 24.212 155.511 24.5 154.502 24.5H148.25C147.241 24.5 146.785 24.212 146.72 23.54C146.687 22.964 146.915 22.548 147.762 21.396C148.348 20.596 148.38 19.54 148.38 17.3V16.98C148.38 14.772 148.738 11.956 146.394 11.956C144.929 11.956 144.115 13.076 144.115 15.028V17.3C144.115 19.54 144.147 20.596 144.733 21.396C145.58 22.548 145.808 22.964 145.775 23.54C145.71 24.212 145.254 24.5 144.245 24.5H137.993C136.984 24.5 136.528 24.212 136.495 23.54C136.43 22.964 136.691 22.548 137.537 21.396C138.123 20.596 138.156 19.54 138.156 17.3V16.98C138.156 14.772 138.514 11.956 136.17 11.956C134.704 11.956 133.858 13.076 133.858 15.028V17.3C133.858 19.54 133.89 20.596 134.509 21.396C135.356 22.548 135.584 22.964 135.551 23.54C135.486 24.212 135.03 24.5 134.021 24.5H127.769C126.759 24.5 126.304 24.212 126.271 23.54C126.206 22.964 126.466 22.548 127.313 21.396C127.899 20.596 127.932 19.54 127.932 17.3C127.932 15.092 127.899 14.036 127.313 13.236C126.466 12.084 126.206 11.668 126.271 11.092C126.304 10.42 126.792 10.004 127.769 9.68399C128.778 9.36399 130.699 8.78799 131.058 8.69199C132.848 8.21199 133.793 8.97999 133.858 10.644C134.997 9.55599 136.593 8.56399 138.709 8.56399C141.412 8.56399 142.877 9.71599 143.561 11.188C144.701 9.93999 146.492 8.56399 148.934 8.56399C153.199 8.56399 154.339 11.38 154.339 13.844V17.3C154.339 19.54 154.371 20.596 154.958 21.396ZM171.672 19.764C172.616 18.868 173.528 19.572 172.974 20.756C171.997 22.932 169.783 24.788 165.941 24.788C161.415 24.788 156.921 22.26 156.726 16.884C156.563 11.38 160.894 8.37199 165.778 8.56399C170.565 8.69199 172.844 11.956 173.104 14.58C173.332 16.724 172.942 17.556 170.858 17.556H162.815C163.597 21.652 169.034 22.292 171.672 19.764ZM165.29 11.156C163.824 11.252 163.141 12.724 162.848 14.068C162.75 14.42 162.913 14.74 163.206 14.74H167.015C167.797 14.74 168.155 14.196 167.895 13.236C167.667 12.308 167.113 10.996 165.29 11.156Z" fill="black"/>
</g>
<defs>
<clipPath id="clip0_9_327">
<rect width="174" height="25" fill="white"/>
</clipPath>
</defs>
</svg>
